<?xml version="1.0" standalone="no"?>
<!DOCTYPE svg PUBLIC "-//W3C//DTD SVG 20010904//EN"
 "http://www.w3.org/TR/2001/REC-SVG-20010904/DTD/svg10.dtd">
<svg version="1.0" xmlns="http://www.w3.org/2000/svg"
 width="640.000000pt" height="640.000000pt" viewBox="0 0 640.000000 640.000000"
 preserveAspectRatio="xMidYMid meet">
<metadata>
Created by potrace 1.14, written by Peter Selinger 2001-2017
</metadata>
<g transform="translate(0.000000,640.000000) scale(0.100000,-0.100000)"
fill="#000000" stroke="none">
<path d="M2222 5414 c-59 -12 -136 -29 -172 -39 -36 -9 -76 -19 -90 -21 -158
-29 -749 -247 -800 -296 -29 -27 -62 -68 -56 -68 4 0 -43 -76 -72 -116 -13
-18 -29 -46 -111 -189 -206 -363 -360 -723 -471 -1106 -27 -92 -51 -180 -53
-196 -3 -15 -10 -46 -16 -69 -19 -70 -66 -326 -76 -414 -1 -14 -6 -50 -9 -80
-26 -205 -31 -302 -30 -595 0 -154 3 -325 8 -380 4 -55 8 -108 8 -117 -1 -17
51 -59 163 -133 33 -22 62 -42 65 -45 8 -8 42 -29 77 -47 18 -9 33 -20 33 -25
0 -4 5 -8 11 -8 6 0 23 -8 37 -19 23 -15 64 -39 167 -95 11 -6 22 -14 25 -17
9 -10 265 -134 273 -131 4 1 7 -3 7 -8 0 -6 9 -10 20 -10 11 0 20 -4 20 -9 0
-5 10 -11 23 -14 12 -3 81 -30 152 -59 113 -47 296 -116 329 -123 6 -1 18 -5
26 -8 55 -21 66 -18 98 27 18 24 32 49 32 55 0 6 4 11 9 11 9 0 71 96 71 110
0 5 4 10 8 12 15 6 152 253 152 274 0 6 -30 24 -67 39 -90 37 -274 122 -293
135 -8 6 -30 17 -48 25 -18 9 -42 25 -53 36 l-20 20 52 42 c29 23 58 42 64 41
9 -1 62 -22 110 -44 11 -5 45 -19 75 -30 30 -11 64 -25 75 -30 49 -22 320
-105 410 -125 52 -12 218 -45 249 -50 21 -3 41 -7 45 -9 3 -2 33 -7 66 -10 33
-4 76 -8 95 -11 63 -9 233 -17 360 -17 159 -1 304 8 440 28 25 3 59 7 75 9 17
1 55 7 85 14 30 6 69 13 85 16 98 16 440 113 510 145 11 5 65 27 120 48 55 22
116 47 136 56 40 17 38 18 116 -50 l36 -31 -49 -29 c-79 -48 -283 -146 -384
-184 -64 -24 -64 -25 -14 -119 25 -47 52 -93 59 -101 8 -8 15 -19 16 -25 5
-27 178 -282 195 -289 26 -10 442 140 556 200 14 8 33 14 42 14 9 0 16 5 16
10 0 6 5 10 11 10 19 0 242 113 388 197 165 95 423 264 468 307 16 15 27 223
27 521 1 271 -7 421 -28 588 -3 26 -8 68 -11 95 -6 45 -10 75 -19 117 -2 11
-11 65 -21 120 -9 55 -18 102 -20 106 -2 3 -7 21 -10 40 -11 65 -53 221 -92
349 -15 47 -27 90 -29 96 -4 20 -87 249 -105 291 -11 23 -19 44 -19 46 0 3
-10 26 -22 53 -12 27 -21 52 -20 57 1 4 -2 7 -6 7 -5 0 -9 6 -9 13 0 17 -222
460 -246 491 -12 15 -51 80 -52 86 -2 9 -49 84 -112 179 -35 51 -63 96 -63
100 0 11 -445 191 -505 204 -5 2 -16 6 -22 10 -7 5 -13 6 -13 2 0 -3 -13 1
-30 10 -16 9 -30 13 -30 11 0 -3 -12 -1 -27 5 -16 6 -35 12 -43 14 -8 2 -76
20 -150 39 -74 19 -169 42 -210 51 -179 39 -193 40 -206 13 -6 -13 -31 -63
-56 -113 -25 -49 -55 -111 -66 -136 l-21 -46 -53 8 c-319 51 -773 56 -1133 14
-22 -2 -68 -7 -101 -11 l-62 -7 -12 39 c-7 22 -20 47 -29 58 -9 10 -14 19 -12
20 5 1 -52 118 -80 163 -23 37 -21 37 -167 7z m162 -1873 c221 -79 366 -298
368 -556 2 -285 -173 -531 -418 -588 -327 -75 -635 204 -636 576 -1 278 169
517 412 582 67 18 204 11 274 -14z m1931 9 c164 -50 300 -188 360 -365 3 -11
6 -20 6 -20 0 0 6 -25 13 -55 17 -73 13 -218 -9 -300 -43 -167 -151 -305 -290
-373 -156 -77 -339 -66 -480 29 -57 39 -125 100 -125 113 0 5 -7 14 -15 21
-30 25 -93 160 -111 237 -23 103 -7 292 32 380 10 21 18 40 18 43 3 18 69 112
102 146 47 48 124 109 124 97 0 -4 4 -2 9 5 4 7 14 15 22 16 8 2 22 6 31 10
79 35 227 42 313 16z"/>
</g>
</svg>
